Coordinates
version=1
nRows=7
nColumns=63
inDegrees=yes

Units are S.I. units (second, meters, Newtons, ...)
If the header above contains a line with 'inDegrees', this indicates whether rotational values are in degrees (yes) or radians (no).

endheader
time	pelvis_tilt	pelvis_list	pelvis_rotation	pelvis_tx	pelvis_ty	pelvis_tz	hip_flexion_r	hip_adduction_r	hip_rotation_r	knee_angle_r	knee_angle_r_beta	ankle_angle_r	subtalar_angle_r	mtp_angle_r	hip_flexion_l	hip_adduction_l	hip_rotation_l	knee_angle_l	knee_angle_l_beta	ankle_angle_l	subtalar_angle_l	mtp_angle_l	L5_S1_Flex_Ext	L5_S1_Lat_Bending	L5_S1_axial_rotation	L4_L5_Flex_Ext	L4_L5_Lat_Bending	L4_L5_axial_rotation	L3_L4_Flex_Ext	L3_L4_Lat_Bending	L3_L4_axial_rotation	L2_L3_Flex_Ext	L2_L3_Lat_Bending	L2_L3_axial_rotation	L1_L2_Flex_Ext	L1_L2_Lat_Bending	L1_L2_axial_rotation	L1_T12_Flex_Ext	L1_T12_Lat_Bending	L1_T12_axial_rotation	Abs_r3	Abs_r2	Abs_r1	Abs_t1	Abs_t2	neck_flexion	neck_bending	neck_rotation	arm_flex_r	arm_add_r	arm_rot_r	elbow_flex_r	pro_sup_r	wrist_flex_r	wrist_dev_r	arm_flex_l	arm_add_l	arm_rot_l	elbow_flex_l	pro_sup_l	wrist_flex_l	wrist_dev_l
      0.00000000	      9.80276735	     -6.64039206	     85.82752012	      0.43750165	      0.59131152	      0.72887147	     18.32425841	      5.62642522	     -9.40178442	     19.78509007	      0.34531496	     25.68179301	     -2.53977249	      0.00000000	     13.56664875	     -7.50807422	     -6.93631988	     13.34434900	      0.23290283	     28.14262833	      5.24760634	      0.00000000	      0.26394389	      0.79148119	     -0.06347991	      0.49017020	      1.05266998	     -0.06744741	      0.43363342	      1.92440736	     -0.06744741	      0.30166147	      1.92440736	     -0.05554493	      0.24509830	      1.61398844	     -0.05157743	      0.15081754	      1.22600436	     -0.04760994	      1.88532481	      8.95339351	     -0.35305624	      0.00000000	      0.00000000	     28.19364540	     -1.87785876	     10.39466774	     16.03121428	     -4.62998955	     64.07233514	     30.82941250	     53.38657582	     -1.63679392	      5.47359049	     18.05633364	      2.15390112	     77.73806692	     22.52759182	     69.95299623	     -4.89006895	     -7.84915668
      0.01694915	     10.22011942	     -5.78497796	     86.11518549	      0.43320156	      0.59273228	      0.72571861	     17.04517319	      5.67224346	     -9.54249467	     19.51678576	      0.34063217	     25.41267185	     -2.12956133	      0.00000000	     11.57199615	     -7.40794091	     -7.17528133	     10.91306839	      0.19046897	     28.58419552	      6.03483513	      0.00000000	      0.21829539	      0.92945763	     -0.22513883	      0.40539637	      1.23617865	     -0.23921001	      0.35863749	      2.25988328	     -0.23921001	      0.24948980	      2.25988328	     -0.19699648	      0.20270910	      1.89535000	     -0.18292530	      0.12473398	      1.43972987	     -0.16885412	      1.55926213	     10.51421059	     -1.25215464	      0.00000000	      0.00000000	     28.16154068	     -1.90269050	     14.44733689	     15.73182482	     -5.42269839	     64.88844573	     31.45291239	     53.52626093	     -1.03145694	      4.27144443	     16.74928032	      1.77964013	     70.98565007	     24.52776769	     64.46116725	     -5.16433053	     -8.61979316
      0.03389831	     10.28242903	     -5.06810615	     86.39623707	      0.43025663	      0.59385068	      0.72313793	     15.97847448	      5.44106394	     -9.78189227	     19.29162754	      0.33670242	     25.16551937	     -1.98259594	      0.00000000	      9.77044403	     -7.02562647	     -7.00182974	      8.65333959	      0.15102927	     28.20104455	      6.40486520	      0.00000000	      0.17774557	      0.98476393	     -0.34938885	      0.33009129	      1.30973603	     -0.37122566	      0.29201819	      2.39435502	     -0.37122566	      0.20314541	      2.39435502	     -0.30571525	      0.16505453	      2.00813061	     -0.28387844	      0.10156382	      1.52539933	     -0.26204164	      1.26961881	     11.13984654	     -1.94319598	      0.00000000	      0.00000000	     28.12660213	     -2.42613591	     15.60219680	     15.21132731	     -6.13393659	     63.91394206	     32.39042055	     52.69927802	     -0.56537180	      3.13412406	     16.20455189	      1.52634769	     68.11113184	     25.57010893	     62.49102729	     -5.52505348	    -10.30395994
      0.05084746	     10.14660040	     -4.55974012	     86.51314493	      0.42853468	      0.59456322	      0.72108126	     15.27331268	      5.08579083	    -10.05877562	     19.33296424	      0.33742388	     25.03506305	     -1.93721593	      0.00000000	      8.35765724	     -6.58196124	     -6.57954701	      6.90597511	      0.12053200	     27.44717604	      6.41656903	      0.00000000	      0.14397054	      0.99624758	     -0.46729447	      0.26736769	      1.32500928	     -0.49650038	      0.23652920	      2.42227637	     -0.49650038	      0.16454393	      2.42227637	     -0.40888266	      0.13369104	      2.03154807	     -0.37967676	      0.08226477	      1.54318750	     -0.35047085	      1.02836716	     11.26975189	     -2.59895167	      0.00000000	      0.00000000	     28.08650287	     -2.51115501	     16.07464009	     14.74846994	     -6.86340012	     62.24544293	     33.61066675	     51.48704915	     -0.07574154	      2.16474023	     15.69323508	      1.13467754	     65.86121871	     26.51646851	     61.15480341	     -5.28427792	    -11.55878712
      0.06779661	      9.88333826	     -4.21548654	     86.54809059	      0.42759622	      0.59494339	      0.71967205	     14.80869778	      4.65602898	    -10.37033970	     19.42766150	      0.33907666	     24.86308181	     -2.00061121	      0.00000000	      7.33542126	     -6.10627718	     -6.05314863	      5.68740454	      0.09926394	     26.56997860	      6.09820364	      0.00000000	      0.11302180	      0.97591035	     -0.56568642	      0.20989279	      1.29796076	     -0.60104182	      0.18568352	      2.37282842	     -0.60104182	      0.12917262	      2.37282842	     -0.49497561	      0.10495205	      1.99007638	     -0.45962021	      0.06458066	      1.51168513	     -0.42426481	      0.80730344	     11.03969305	     -3.14617814	      0.00000000	      0.00000000	     28.05518902	     -2.36967195	     15.78219627	     14.31861284	     -7.68178972	     60.07150601	     35.07922269	     50.11611205	      0.33759716	      1.25669431	     15.37053783	      0.65771836	     64.43658347	     27.26832451	     60.66152818	     -4.87966284	    -12.45948354
      0.08474576	      9.44289327	     -3.96442621	     86.33093637	      0.42753395	      0.59516932	      0.71834901	     14.46841065	      4.05883711	    -11.02602921	     19.57193493	      0.34159471	     24.82975860	     -1.47001431	      0.00000000	      6.16932321	     -5.22334862	      1.52861495	      4.01481978	      0.07007182	     23.25424775	     -4.60664204	      0.00000000	      0.08729072	      0.91741262	     -0.60385033	      0.16210759	      1.22015878	     -0.64159097	      0.14340992	      2.23059704	     -0.64159097	      0.09976456	      2.23059704	     -0.52836904	      0.08105816	      1.87078781	     -0.49062839	      0.04987792	      1.42107215	     -0.45288775	      0.62350886	     10.37795504	     -3.35843437	      0.00000000	      0.00000000	     28.01473991	     -2.51406582	     14.17274190	     13.54398063	     -8.40668829	     56.67273282	     36.86330228	     46.03311782	      0.66331035	      1.49606687	     14.56568836	      0.24143849	     60.30978443	     27.94140805	     65.07896732	     -3.94127371	    -12.06933240
      0.10169492	      9.07425521	     -3.82487132	     86.22844824	      0.42774899	      0.59530785	      0.71765051	     14.28160047	      3.63516634	    -11.18709569	     19.66477437	      0.34321506	     24.53325400	     -1.76581233	      0.00000000	      5.59646919	     -4.81650643	      2.15770707	      3.34053736	      0.05830338	     22.10862386	     -5.33325805	      0.00000000	      0.06375288	      0.86007125	     -0.64036457	      0.11839548	      1.14389477	     -0.68038736	      0.10473961	      2.09117725	     -0.68038736	      0.07286317	      2.09117725	     -0.56031900	      0.05920093	      1.75385730	     -0.52029621	      0.03642840	      1.33225037	     -0.48027343	      0.45538047	      9.72929805	     -3.56151564	      0.00000000	      0.00000000	     27.97620971	     -2.39259526	     12.61737752	     12.78704648	     -9.17563783	     52.87585725	     38.49665009	     45.31175807	      0.49189940	      0.74244164	     14.42541467	     -0.25748036	     59.14732382	     28.17810689	     64.82883607	     -3.51482638	    -12.01488050
